<svg xmlns="http://www.w3.org/2000/svg" viewBox="0 0 750 500"><g id="freepik--background-complete--inject-25"><polygon points="55.49 285.2 31.78 268.62 37.56 260.35 53.46 271.46 74.06 245.33 81.99 251.58 55.49 285.2" style="fill:#e0e0e0"></polygon><path d="M713.19,253.17c-1.83-7.43-9-13.7-16.63-12.8-4.49.52-8.47,3.37-11.15,7a30.46,30.46,0,0,0-2.57,3.91,32,32,0,0,0-2.72-3.81c-2.81-3.54-6.9-6.23-11.41-6.59-7.62-.61-14.58,5.93-16.13,13.41s1.41,15.34,6.12,21.36,12.51,13.7,25.53,16.42c8.5-2.12,19.15-11.15,23.64-17.34S715,260.59,713.19,253.17Z" style="fill:#ebebeb"></path><path d="M712.05,267a1.53,1.53,0,0,1-.25,0l-.74,0-2.84.1-10.44.27.18-.13c-.86,3.39-1.87,7.37-3,11.72l-.18.71-.25-.68c-2-5.29-4.15-11.22-6.45-17.46-.72-1.93-1.42-3.84-2.1-5.69l.45,0-6.6,11.77-.07.12h-.12l-18.37.25-5.21,0h-1.37l-.48,0a2.53,2.53,0,0,1,.48-.05l1.37-.06,5.2-.16,18.37-.43-.19.11L686,255.73l.26-.47.18.51q1,2.78,2.1,5.69c2.3,6.25,4.47,12.18,6.41,17.47l-.43,0,3.07-11.7,0-.14h.14l10.44-.11h3.58Z" style="fill:#fafafa"></path><path d="M646.64,80.41a12.65,12.65,0,0,0,7.54-11.71c0-7-5.26-12.69-11.82-12.72s-11.9,5.61-11.93,12.61A12.65,12.65,0,0,0,638,80.41C619.73,83.16,620.56,103,620.56,103l43.21.19S664.76,83.15,646.64,80.41Z" style="fill:#ebebeb"></path><path d="M613.24,66.85a6.55,6.55,0,0,0,3.9-6,6.15,6.15,0,1,0-12.28-.06,6.53,6.53,0,0,0,3.91,6.11c-9.44,1.43-9,11.69-9,11.69l22.33.1S622.6,68.27,613.24,66.85Z" style="fill:#ebebeb"></path><path d="M327.35,69.93a20.35,20.35,0,0,0-5-11.12,19.57,19.57,0,0,0-10.08-6.43,16,16,0,0,0-12.35,2.22,15.79,15.79,0,0,0-5.13,5.61,15.84,15.84,0,0,0-4.61-5.16,16.07,16.07,0,0,0-12.28-2.62,19.6,19.6,0,0,0-10.28,6.1,20.41,20.41,0,0,0-5.4,11A24.78,24.78,0,0,0,265,84.75c2.74,4.74,7.23,8.6,11.87,11.49,7.8,4.88,18.08,11,18.08,11s8.87-6.41,16.82-11c4.74-2.75,9.35-6.46,12.24-11.1A24.7,24.7,0,0,0,327.35,69.93Z" style="fill:#ebebeb"></path><path d="M358.27,53.49a7,7,0,0,0-1.71-3.77,6.59,6.59,0,0,0-3.42-2.18,5.36,5.36,0,0,0-5.94,2.65,5.32,5.32,0,0,0-5.73-2.63A6.62,6.62,0,0,0,338,49.63a6.89,6.89,0,0,0-1.84,3.71,8.44,8.44,0,0,0,1,5.18,11.85,11.85,0,0,0,4,3.9c2.65,1.66,6.14,3.73,6.14,3.73s3-2.18,5.71-3.74a11.93,11.93,0,0,0,4.15-3.77A8.41,8.41,0,0,0,358.27,53.49Z" style="fill:#f5f5f5"></path><path d="M297.11,80a6.75,6.75,0,0,0,4-6.25,6.35,6.35,0,1,0-12.67,0,6.74,6.74,0,0,0,4,6.3c-9.75,1.47-9.31,12.07-9.31,12.07l23.05.1S306.77,81.49,297.11,80Z" style="fill:#fff"></path><path d="M21.86,404.05c34.5-4,59.26,15.92,59.26,15.92C53.6,430.27,21.86,404.05,21.86,404.05Z" style="fill:#e0e0e0"></path><path d="M122.71,412.17c-2,21.22-17.64,34.55-17.64,34.55C102.22,429.19,122.71,412.17,122.71,412.17Z" style="fill:#e0e0e0"></path><path d="M101.68,455.73C76.21,458.27,56.88,443,56.88,443,76.88,435.67,101.68,455.73,101.68,455.73Z" style="fill:#e0e0e0"></path><path d="M73.72,397.21c.41-.24,9.9,15.67,21.19,35.52s20.12,36.14,19.7,36.38-9.9-15.67-21.19-35.53S73.3,397.44,73.72,397.21Z" style="fill:#e0e0e0"></path><path d="M40.33,353.35s36,16.64,37.38,52C77.71,405.36,46.84,391.58,40.33,353.35Z" style="fill:#e0e0e0"></path><path d="M95.93,362.71s18.94,34.79-1,64C94.94,426.75,78.37,397.29,95.93,362.71Z" style="fill:#e0e0e0"></path><path d="M244.08,195.15c24.66,3.07,38.51,21.09,38.51,21.09C261.72,218.75,244.08,195.15,244.08,195.15Z" style="fill:#e0e0e0"></path><path d="M312.82,217.84c-5,14.41-18.1,21-18.1,21C295.7,226.21,312.82,217.84,312.82,217.84Z" style="fill:#e0e0e0"></path><path d="M290.84,244.57c-18.14-2.54-29-16.39-29-16.39C277,226.43,290.84,244.57,290.84,244.57Z" style="fill:#e0e0e0"></path><path d="M281.29,199.16c.32-.09,4.23,12.57,8.73,28.28s7.88,28.52,7.55,28.61-4.24-12.56-8.73-28.28S281,199.25,281.29,199.16Z" style="fill:#e0e0e0"></path><path d="M265.49,163s22.18,17.65,17.2,42.48A51,51,0,0,1,265.49,163Z" style="fill:#e0e0e0"></path><path d="M302.56,178.93s7.29,27.39-11.51,44.35A51,51,0,0,1,302.56,178.93Z" style="fill:#e0e0e0"></path><path d="M434.44,167.81C448.76,182.93,448.13,202,448.13,202,433.29,192.47,434.44,167.81,434.44,167.81Z" style="fill:#e0e0e0"></path><path d="M466.84,219.1c-10.9,6.68-22.92,4-22.92,4C451.3,215.4,466.84,219.1,466.84,219.1Z" style="fill:#e0e0e0"></path><path d="M438.38,224.69c-10.38-11.3-10-26.05-10-26.05C439.08,205.58,438.38,224.69,438.38,224.69Z" style="fill:#e0e0e0"></path><path d="M456.38,190.22c.27.11-3.95,10.39-9.41,22.95s-10.09,22.65-10.35,22.54,3.95-10.39,9.41-23S456.12,190.11,456.38,190.22Z" style="fill:#e0e0e0"></path><path d="M465.41,158.42s4.95,23.23-11.5,36.65A42.78,42.78,0,0,1,465.41,158.42Z" style="fill:#e0e0e0"></path><path d="M480.92,188.46s-9.87,21.61-31.07,22.57A42.78,42.78,0,0,1,480.92,188.46Z" style="fill:#e0e0e0"></path><path d="M648.2,351c18.35,34.54,9.11,68.48,9.11,68.48C635.65,394.83,648.2,351,648.2,351Z" style="fill:#e0e0e0"></path><path d="M682.39,459.94c-21.75,6.44-41.42-4.59-41.42-4.59C657,445.31,682.39,459.94,682.39,459.94Z" style="fill:#e0e0e0"></path><path d="M646.69,441.61c-13.62-14-14.41-32.38-14.41-32.38C646,417.73,646.69,441.61,646.69,441.61Z" style="fill:#e0e0e0"></path><path d="M676.63,402.6c.41.34-11.29,16.67-26.13,36.48s-27.19,35.61-27.59,35.27S634.2,457.68,649,437.86,676.23,402.26,676.63,402.6Z" style="fill:#e0e0e0"></path><path d="M705.88,350s-1.36,44.35-35.6,60.07C670.28,410.06,670.94,372.18,705.88,350Z" style="fill:#e0e0e0"></path><path d="M719.91,412s-26.35,33.83-63.51,24.71C656.4,436.71,678.5,407.5,719.91,412Z" style="fill:#e0e0e0"></path><path d="M65.81,59.14a14.76,14.76,0,0,1,3.63-1.58L70.19,54l6.07-.11.88,3.56a15.24,15.24,0,0,1,3.68,1.45l3.07-2,4.37,4.22-1.9,3.14a14.56,14.56,0,0,1,1.57,3.63l3.6.74.1,6.08-3.56.87a15.24,15.24,0,0,1-1.45,3.68l2,3.07-4.22,4.37-3.13-1.9a15,15,0,0,1-3.64,1.58l-.74,3.59L70.83,90,70,86.47A14.84,14.84,0,0,1,66.27,85L63.2,87l-4.37-4.21,1.9-3.14a14.72,14.72,0,0,1-1.57-3.63l-3.6-.75-.1-6.07L59,68.35a14.84,14.84,0,0,1,1.45-3.68l-2-3.07,4.22-4.37,3.13,1.91Zm3.24,8.08a6.51,6.51,0,1,0,9.21-.16A6.51,6.51,0,0,0,69.05,67.22Z" style="fill:#f5f5f5"></path><path d="M111.34,327.6A14.59,14.59,0,0,1,115,326l.74-3.6,6.08-.1.87,3.56a15.24,15.24,0,0,1,3.68,1.45l3.07-2,4.37,4.22-1.9,3.13a15.21,15.21,0,0,1,1.58,3.64l3.59.74.11,6.07-3.57.88a14.84,14.84,0,0,1-1.45,3.68l2,3.07-4.21,4.37-3.14-1.9a14.72,14.72,0,0,1-3.63,1.57l-.75,3.6-6.07.1-.88-3.56a14.84,14.84,0,0,1-3.68-1.45l-3.07,2-4.37-4.22,1.91-3.13a14.76,14.76,0,0,1-1.58-3.63l-3.59-.75-.11-6.07,3.56-.88a15.24,15.24,0,0,1,1.45-3.68l-2-3.07,4.22-4.37,3.14,1.91Zm3.23,8.08a6.52,6.52,0,1,0,9.21-.16A6.52,6.52,0,0,0,114.57,335.68Z" style="fill:#ebebeb"></path><path d="M119.06,53.25a25.43,25.43,0,0,1,6.21-2.7l1.28-6.14,10.38-.19,1.5,6.1a25.65,25.65,0,0,1,6.3,2.48L150,49.36l7.47,7.21-3.26,5.37a25.1,25.1,0,0,1,2.7,6.21L163,69.43l.18,10.38-6.1,1.49a25.31,25.31,0,0,1-2.47,6.3l3.43,5.25-7.21,7.47-5.36-3.25a25.43,25.43,0,0,1-6.21,2.7L138,105.91l-10.39.19-1.49-6.1a25.34,25.34,0,0,1-6.3-2.48L114.59,101l-7.47-7.21,3.25-5.37a25.45,25.45,0,0,1-2.69-6.21l-6.15-1.28-.18-10.38L107.44,69a25.74,25.74,0,0,1,2.48-6.3l-3.44-5.25L113.7,50l5.36,3.25Zm5.54,13.83a11.14,11.14,0,1,0,15.75-.27A11.14,11.14,0,0,0,124.6,67.08Z" style="fill:#ebebeb"></path></g><g id="freepik--Table--inject-25"><path d="M700.94,475.69c0,.15-145.94.26-325.92.26s-326-.11-326-.26,145.91-.26,326-.26S700.94,475.55,700.94,475.69Z" style="fill:#263238"></path></g><g id="freepik--speech-bubble-3--inject-25"><path d="M616.33,188.22l4.56-10.55a36.92,36.92,0,1,1,7.26,11.08h0Z" style="fill:#fff"></path><path d="M616.33,188.22h.8l2.29.07,8.75.3-.16.26v0a.16.16,0,0,1,.06-.23.17.17,0,0,1,.21,0,37,37,0,0,0,15.25,9.52,36.08,36.08,0,0,0,11.58,1.73,36.5,36.5,0,0,0,30.38-56.36l-1.25-1.87-1.41-1.74a40.44,40.44,0,0,0-3-3.24,37.67,37.67,0,0,0-7.06-5.14,37.18,37.18,0,0,0-16.07-4.67A36.71,36.71,0,0,0,621,177.61v.14c-1.5,3.35-2.66,5.94-3.46,7.74l-.91,2c-.21.46-.34.71-.34.71s.08-.22.26-.67.47-1.15.83-2c.76-1.85,1.87-4.5,3.31-7.94v.13a36.81,36.81,0,0,1-2.84-17.94,37.32,37.32,0,0,1,38.81-33.71,37.73,37.73,0,0,1,23.63,10,38.91,38.91,0,0,1,3.1,3.32l1.44,1.77,1.28,1.91A37.23,37.23,0,0,1,668.32,198a36.87,36.87,0,0,1-13.22,2.47,36.37,36.37,0,0,1-11.74-1.83,36.93,36.93,0,0,1-15.34-9.8l.28-.2v0a.17.17,0,0,1-.07.23.16.16,0,0,1-.09,0l-8.86-.52-2.23-.14Z" style="fill:#263238"></path><path d="M647.89,163.52a4.07,4.07,0,1,1-4.06-4.06A4.07,4.07,0,0,1,647.89,163.52Z" style="fill:#263238"></path><path d="M659.32,163.52a4.07,4.07,0,1,1-4.07-4.06A4.07,4.07,0,0,1,659.32,163.52Z" style="fill:#263238"></path><path d="M670.75,163.52a4.07,4.07,0,1,1-4.07-4.06A4.07,4.07,0,0,1,670.75,163.52Z" style="fill:#263238"></path></g><g id="freepik--speech-bubble-2--inject-25"><path d="M412.26,105.92l2.61-13a42.68,42.68,0,1,1,10.85,10.75v0Z" style="fill:#fff"></path><path d="M412.26,105.92l.84-.11,2.56-.39,10.1-1.56a.15.15,0,0,0,.12-.17.2.2,0,0,0,0-.08v0l-.2.22a42.63,42.63,0,0,0,26.25,7.55,49.09,49.09,0,0,0,7-1,42.58,42.58,0,0,0,26.42-17.92,42.91,42.91,0,0,0,6.78-17.11,42.39,42.39,0,0,0-1.42-19.49,41.93,41.93,0,0,0-10.56-17.51l-1.89-1.85-2.05-1.65-1-.83-1.08-.72-2.18-1.44c-.74-.45-1.52-.83-2.27-1.24a20.62,20.62,0,0,0-2.31-1.14,38.48,38.48,0,0,0-4.79-1.8A43.58,43.58,0,0,0,443,26.28a42.9,42.9,0,0,0-35,33.5,48,48,0,0,0-.9,7.07,57.25,57.25,0,0,0,.26,6.63A42.46,42.46,0,0,0,414.75,93l0-.11c-.81,4.23-1.44,7.49-1.87,9.73-.2,1.06-.35,1.89-.46,2.47s-.14.81-.14.81.08-.3.2-.86.3-1.42.53-2.5c.47-2.2,1.15-5.42,2-9.59a.18.18,0,0,0,0-.12,42.44,42.44,0,0,1-7.25-19.42,58.51,58.51,0,0,1-.22-6.56,46.8,46.8,0,0,1,.93-7,42.45,42.45,0,0,1,34.6-33,43,43,0,0,1,19.3,1.43,37.08,37.08,0,0,1,4.7,1.77,19.12,19.12,0,0,1,2.27,1.12c.75.41,1.52.78,2.24,1.22l2.14,1.42,1.07.71,1,.81,2,1.63,1.86,1.82a41.4,41.4,0,0,1,10.4,17.22,41.89,41.89,0,0,1,1.42,19.18A42.48,42.48,0,0,1,472.89,104a41.91,41.91,0,0,1-14.08,5.92,46.65,46.65,0,0,1-6.95,1,41.77,41.77,0,0,1-6.56-.16,42.68,42.68,0,0,1-19.5-7.13.15.15,0,0,0-.21,0,.15.15,0,0,0,0,.18l0,0,.09-.25-10,1.73-2.59.46Z" style="fill:#263238"></path><circle cx="449.67" cy="71.95" r="25.16" style="fill:#2883E7"></circle><g style="opacity:0.30000000000000004"><circle cx="449.67" cy="71.95" r="25.16"></circle></g><circle cx="449.67" cy="69.17" r="25.16" transform="translate(9.95 185.93) rotate(-23.62)" style="fill:#2883E7"></circle><circle cx="449.67" cy="69.17" r="16.85" transform="translate(82.8 338.23) rotate(-45)" style="fill:#fff"></circle><circle cx="449.67" cy="69.17" r="8.25" style="fill:#2883E7"></circle><polygon points="467.21 50.75 466.52 45.38 471.99 39.53 472.38 45.33 467.21 50.75" style="fill:#455a64"></polygon><polygon points="478.94 46.48 473.39 46.03 467.84 51.37 473.39 51.97 478.94 46.48" style="fill:#455a64"></polygon><g style="opacity:0.30000000000000004"><path d="M450.78,69.05,470,54.36a23.63,23.63,0,0,0-2.41-2.94L450.78,67.74Z"></path></g><path d="M472.61,44.52l-7.83,7.83L452.35,64.78l-2.86,2.86c-.9.9.51,2.3,1.42,1.39l7.83-7.83Q465,55,471.17,48.77L474,45.91c.91-.9-.51-2.3-1.41-1.39Z" style="fill:#263238"></path></g><g id="freepik--character-2--inject-25"><path d="M290,475.69s-5.21-9.24,2.21-47.48c4.26-21.94,23.12-50.23,23.12-50.23s90.29,2.24,90.37,3.68,27.63,29.43,31.63,58.54,3.22,35.49,3.22,35.49Z" style="fill:#263238"></path><path d="M361.28,441.81c-.14,0-.82-11.52-1.52-25.73s-1.14-25.75-1-25.76.83,11.51,1.52,25.73S361.43,441.8,361.28,441.81Z" style="fill:#455a64"></path><path d="M369.4,393.94c-1.64-.08-3.25,1.59-3.71,3a4.76,4.76,0,1,0,2.39-2.75" style="fill:#455a64"></path><path d="M338.6,220.41l5.93-15,35.38-1.87,14.45,1.87,1.59,4.15,9.81,173.54s-34.27,6.91-51.41,4.51-37.27-10.22-37.27-10.22V278.7Z" style="fill:#e0e0e0"></path><path d="M391.85,227.46a1.23,1.23,0,0,1-.24.31l-.77.86c-.68.75-1.7,1.82-3,3.14a122.79,122.79,0,0,1-11.59,10.13l-.16.14-.15-.16a131.1,131.1,0,0,1-10.62-13.29l-1.05-1.53h.43l-8.51,11.45a5.59,5.59,0,0,1-1.18,1.2,2.28,2.28,0,0,1-1.64.45,2.66,2.66,0,0,1-1.42-.81,14.19,14.19,0,0,1-1-1.14L347.6,234l-4.82-6.08-1.29-1.67a4.07,4.07,0,0,1-.42-.6,3.06,3.06,0,0,1,.5.54c.34.4.8.93,1.36,1.6l4.95,6,3.4,4.16c.61.73,1.22,1.62,2.14,1.77s1.75-.65,2.38-1.49l8.46-11.47.21-.29.21.3,1.05,1.52a137.38,137.38,0,0,0,10.54,13.27l-.32,0a139.17,139.17,0,0,0,11.67-10c1.36-1.29,2.4-2.33,3.11-3,.34-.33.61-.59.82-.81A1.56,1.56,0,0,1,391.85,227.46Z" style="fill:#263238"></path><g style="opacity:0.30000000000000004"><path d="M351.43,238.47s4.48,5.52,5.74,4.14,7.91-11.68,8.71-12.11,8.82,14,12,13,14.39-12.24,14.39-12.24l.22-4.43-16.37,14.9-11.62-14.8-9.78,12.72S352.62,241.26,351.43,238.47Z"></path></g><path d="M323.3,120.65s-9.25,34.6-10.05,59.09l-.27,8.15s20.43,17,37.55,18l14.36-35.3Z" style="fill:#263238"></path><path d="M414,141.87c-3.9-16.88-5.4-36.52-19.44-47.52-10.41-8.17-22.28-10.45-35.5-9.89-6.51.27-13.86,3.27-19.54,6.48-7.77,4.4-11.06,13.33-14.82,21.44-7.51,16.25-6.56,38.25-1.47,44.36l67.89,35.85c13.56-7.05,22.05-9.86,24.22-27.93A66.2,66.2,0,0,0,414,141.87Z" style="fill:#263238"></path><path d="M393.85,107.76,351.13,95.15c-13.77-2-23.63,14.65-25.05,28.49-1.57,15.37-2.89,34.2-1.52,45.77,2.76,23.26,20.37,26.9,20.37,26.9s-.13,9.34-.13,9.34l19.46,20.68L394,206.45l6.8-90.16A8.13,8.13,0,0,0,393.85,107.76Z" style="fill:#ffbf9d"></path><path d="M333.92,144.69a3,3,0,0,0,2.74,3.1,2.83,2.83,0,0,0,3.16-2.55,3,3,0,0,0-2.74-3.1A2.83,2.83,0,0,0,333.92,144.69Z" style="fill:#263238"></path><path d="M328.91,137.58c.35.4,2.66-1.17,5.86-1s5.46,1.82,5.82,1.44c.18-.16-.17-.87-1.16-1.66a8.12,8.12,0,0,0-4.64-1.63,7.81,7.81,0,0,0-4.68,1.31C329.1,136.71,328.74,137.4,328.91,137.58Z" style="fill:#263238"></path><path d="M361.94,144.69a3,3,0,0,0,2.74,3.1,2.82,2.82,0,0,0,3.16-2.55,3,3,0,0,0-2.74-3.1A2.83,2.83,0,0,0,361.94,144.69Z" style="fill:#263238"></path><path d="M360.3,138c.35.41,2.66-1.17,5.85-1s5.47,1.82,5.83,1.44c.18-.17-.17-.88-1.16-1.66a8.16,8.16,0,0,0-4.65-1.64,7.92,7.92,0,0,0-4.68,1.31C360.49,137.09,360.12,137.77,360.3,138Z" style="fill:#263238"></path><path d="M347.87,158.64c0-.18-1.95-.6-5.15-1.14-.81-.11-1.57-.31-1.69-.87a4.16,4.16,0,0,1,.64-2.39l2.65-6.11c3.7-8.7,6.41-15.87,6.05-16s-3.63,6.78-7.32,15.49l-2.55,6.15a4.67,4.67,0,0,0-.55,3.18,2,2,0,0,0,1.29,1.24,5.54,5.54,0,0,0,1.38.25C345.84,158.73,347.85,158.82,347.87,158.64Z" style="fill:#263238"></path><path d="M344.83,196.31a58.81,58.81,0,0,0,31.29-7s-8.29,15.88-31.34,12.8Z" style="fill:#ff9a6c"></path><path d="M358.22,165.73a4.66,4.66,0,0,0-3.77-2.25,6.06,6.06,0,0,0-5.59,2.5,3.8,3.8,0,0,0-.35,2.7c.19.46,0,.23.38.56a10.56,10.56,0,0,0,4.2,2.84,4.53,4.53,0,0,0,4.84-1.57A4.62,4.62,0,0,0,358.22,165.73Z" style="fill:#ff9a6c"></path><path d="M357.74,161.36c-.51-.06-.68,3.41-3.75,5.73s-6.74,1.78-6.79,2.26c-.06.21.79.71,2.34.82a8.64,8.64,0,0,0,5.66-1.69,7.48,7.48,0,0,0,2.93-4.82C358.33,162.22,358,161.35,357.74,161.36Z" style="fill:#263238"></path><path d="M359.09,126.28c.23.89,3.44.79,7.13,1.6s6.6,2.12,7.17,1.4c.26-.35-.19-1.22-1.32-2.17a12.74,12.74,0,0,0-10.9-2.29C359.75,125.24,359,125.85,359.09,126.28Z" style="fill:#263238"></path><path d="M329.18,129c.72.63,3-.47,6-.93s5.47-.3,5.94-1.13c.19-.4-.3-1.06-1.48-1.59a9.18,9.18,0,0,0-5-.47A9,9,0,0,0,330,127C329.08,127.89,328.85,128.68,329.18,129Z" style="fill:#263238"></path><path d="M351,92.66c0,.17-.07.33-.11.5l.08,0Z" style="fill:#263238"></path><path d="M384.74,204.56a3.86,3.86,0,0,1-4.85-3.06,47.7,47.7,0,0,1-.12-14.06c.75-6.42,5.11-13.14,5.65-19.59,1-12.29-.05-19.18-1.42-29.49-5.79-.72-11.19-4.19-15-8.69-4.64-5.4-7.44-12.1-10.17-18.68a31.23,31.23,0,0,0,6.29,18,8.42,8.42,0,0,1-7.21-2.34,18.89,18.89,0,0,1-4.23-6.57,51.46,51.46,0,0,1-4.1-18.5,66.46,66.46,0,0,0,3,27c-1.62-.5-3.36-.05-5,.19s-3.6.2-4.79-1a6.05,6.05,0,0,1-1.31-3.09,69.4,69.4,0,0,1-.76-23.53,71.5,71.5,0,0,0-5.31,13,25.43,25.43,0,0,0-.1,13.92,2,2,0,0,1-2.87,0,4.82,4.82,0,0,1-1.25-2.9c-.61-3.89.07-7.85.76-11.72-2.31,4.1-3.08,8.86-4.36,13.38s-3.32,9.18-7.25,11.76a61.66,61.66,0,0,1,.58-17.75c.77-4.85,3.07-9.66,5.2-14.08a41.85,41.85,0,0,1,9.37-13c6.82-6,9.67-3.4,14-1.13l.51.22c0-.11,0-.22,0-.32l.19-.93a65.25,65.25,0,0,1,34.37,1.61c8.2,2.67,9,20.33,11,11.94,1.21-5.08,7.79-.44,7.87-.3,9.67,17.45,19.93,45.13,20.4,88.87h0Z" style="fill:#263238"></path><g style="opacity:0.30000000000000004"><path d="M327.78,318.61q-9.3,61-18.59,122l1.44,13.22c1.63,1.86,4.88,1.24,6.54-.6s2.15-4.41,2.56-6.85C326.81,404.19,330.63,361.28,327.78,318.61Z"></path></g><path d="M327.2,215.86l-21,4.1A25.5,25.5,0,0,0,287,237.48a40.14,40.14,0,0,0-1.43,6.62c-1.83,14.18-10.5,52.52-10.5,52.52s-19.33,9.19-20.17,17.07,6.69,22.18,6.69,22.18,8.35,21.94,19.43,26.52c12.16,5,20.62-10.11,20.62-10.11h0c.08,1.38.13,2.15.13,2.15l-31.83,72c8.1,14.45,23.31,31.37,38.76,35.05,0,0,17.93-111.89,18.94-136.33s16.7-119.42,16.7-119.42Z" style="fill:#2883E7"></path><path d="M253.55,232.33s-3.36-1.34-4.3,1.47c-.61,1.82-1.84,6.63-2.64,9.78a6.54,6.54,0,0,0,1,5.36l2.56,3.58a11.39,11.39,0,0,0-.4,7.11s-3.95,4-3.45,7.54c0,0-5.06,3.22-3.77,8.58s16.28,21.6,16.28,21.6l9.58,3L280.74,291s2.79-15,2.29-21.46c-.6-7.76-3.5-8.53-3.5-8.53l-12.9-12.14-4.6-6.54s-4.33.68-3.55,6.27l-3.86-2.73-1-4.62S256.46,235.47,253.55,232.33Z" style="fill:#ffbf9d"></path><path d="M243,205.76c.78.44,15.79,44.05,15.79,44.05l3.64,1.82L246.28,204.8Z" style="fill:#263238"></path><path d="M257.08,258.19a2.6,2.6,0,0,1,.46.26l1.26.81,4.61,3c1,.62,2,1.31,3.23,2,.58.35,1.19.69,1.83,1a6.61,6.61,0,0,0,2,.73,2,2,0,0,0,1-.12,1.45,1.45,0,0,0,.69-.73,6.28,6.28,0,0,0,.43-2.3,5.11,5.11,0,0,0,0-1.19,3.51,3.51,0,0,0-.53-1.06,12.18,12.18,0,0,0-1.69-1.93,59.15,59.15,0,0,0-7.85-6.09,52.13,52.13,0,0,0-7-4.09,2.55,2.55,0,0,0-2.73.55,8.34,8.34,0,0,0-1.53,1.75c-.73,1.07-1,1.73-1.06,1.71a2,2,0,0,1,.18-.49,11,11,0,0,1,.71-1.33,8.05,8.05,0,0,1,1.51-1.86,3.44,3.44,0,0,1,1.32-.77,2.47,2.47,0,0,1,1.73.1,48,48,0,0,1,7.14,4,57.26,57.26,0,0,1,8,6.11,13.42,13.42,0,0,1,1.75,2,3.91,3.91,0,0,1,.6,1.23,5.53,5.53,0,0,1,.05,1.33,6.75,6.75,0,0,1-.49,2.5,2,2,0,0,1-.93,1,2.47,2.47,0,0,1-1.28.14,6.84,6.84,0,0,1-2.17-.79c-.65-.35-1.26-.71-1.85-1.07-1.17-.71-2.23-1.42-3.2-2.06-1.93-1.29-3.47-2.38-4.53-3.14l-1.2-.89C257.21,258.33,257.07,258.21,257.08,258.19Z" style="fill:#ff9a6c"></path><path d="M250.29,266.22a4.68,4.68,0,0,1,.88-.19l2.51-.42h0l0,0,4,2.9h0l0,0c1.64,1.72,3.6,3.75,5.86,5.87.57.53,1.16,1.07,1.78,1.58a5.55,5.55,0,0,0,2,1.22,1.89,1.89,0,0,0,2-.8,5.26,5.26,0,0,0,.94-2.31,1.85,1.85,0,0,0-.3-1.15,11.05,11.05,0,0,0-.68-1.14c-.49-.74-1-1.45-1.56-2.13-1.08-1.36-2.19-2.62-3.26-3.81a63.41,63.41,0,0,0-6.06-5.93,6.94,6.94,0,0,0-2.8-1.5,5,5,0,0,0-2.38,0,6.93,6.93,0,0,0-1.9.84,1.56,1.56,0,0,1,.42-.36,5.37,5.37,0,0,1,1.42-.68,5,5,0,0,1,2.5-.11,6.94,6.94,0,0,1,3,1.49,58.55,58.55,0,0,1,6.18,5.9c1.09,1.18,2.21,2.44,3.31,3.82.54.68,1.08,1.39,1.59,2.15.25.39.5.77.72,1.2a2.34,2.34,0,0,1,.35,1.47,5.88,5.88,0,0,1-1,2.54,2.83,2.83,0,0,1-1.11.88,2.21,2.21,0,0,1-1.41.1,6,6,0,0,1-2.21-1.34c-.63-.52-1.22-1.07-1.79-1.6-2.26-2.16-4.2-4.21-5.81-6l0,0-3.93-3,.09,0-2.52.3A5.07,5.07,0,0,1,250.29,266.22Z" style="fill:#ff9a6c"></path><path d="M266,276.46a3.06,3.06,0,0,1-.24.86,7.49,7.49,0,0,1-.38,1,1.82,1.82,0,0,1-1.2.85,9.55,9.55,0,0,1-3.68-.17,20.28,20.28,0,0,1-4.08-1.83c-1.64-.91-3.14-1.83-4.42-2.67l.29,0-.29.28,0,0a2.21,2.21,0,0,1-1.17.72,6.24,6.24,0,0,1-1.13.25,14.5,14.5,0,0,1-1.85.11,3.89,3.89,0,0,1-1.59-.17,1.52,1.52,0,0,1,.41,0l1.18-.06c.5,0,1.11-.1,1.79-.22a7.5,7.5,0,0,0,1.06-.27,1.83,1.83,0,0,0,.92-.58v0h0l.29-.3.12-.13.17.1c1.29.8,2.8,1.7,4.42,2.6a21.62,21.62,0,0,0,3.94,1.82,9.94,9.94,0,0,0,3.48.29,1.55,1.55,0,0,0,1-.65c.19-.32.31-.67.44-.92A3.13,3.13,0,0,1,266,276.46Z" style="fill:#ff9a6c"></path><path d="M281.17,287l-21.46,10.56,1,20.1s15.36,2,29-15.33Z" style="fill:#ffbf9d"></path><path d="M269.89,426.42a3.33,3.33,0,0,1,.14-.37l.45-1.07,1.76-4.09,6.62-15.17c5.68-12.91,13.61-30.91,22.63-51.39l0,.11c-.16-5.51-.37-11.26-.64-17.12-.62-13.22-1.34-25.81-1.82-37.26s-.78-21.79-.87-30.46,0-15.7,0-20.55l.13-5.58c0-.62,0-1.1,0-1.45s0-.5,0-.5a4.79,4.79,0,0,1,0,.5c0,.35,0,.83,0,1.45,0,1.3,0,3.18,0,5.59,0,4.85,0,11.86.12,20.53s.46,19,1,30.44,1.2,24.05,1.86,37.27c.27,5.86.47,11.61.64,17.13v.05l0,.06-22.78,51.31C276.3,412.26,274,417.4,272.4,421L270.56,425c-.2.45-.37.79-.48,1.05A3.12,3.12,0,0,1,269.89,426.42Z" style="fill:#263238"></path><path d="M326.45,313a.91.91,0,0,1-.09-.26l-.19-.78c-.17-.72-.4-1.73-.7-3-.54-2.62-1.32-6.43-2-11.17s-1.42-10.41-2-16.72-1-13.27-1.34-20.58c-.12-2.72-.24-5.4-.36-8-.06-1.31-.11-2.6-.17-3.87l-.09-1.9,0-.94v-.48c0-.08,0-.17,0-.26l0-.17a.36.36,0,0,1,.07-.1.31.31,0,0,1,.28-.08c.18.1.13.11.18.16l-.36-.08,5.62-3.92,0,.41-6.1-2.86-.17-.08.05-.17c.92-3.47,2-6.55,3-9.28s1.87-5.08,2.62-7,1.36-3.43,1.78-4.45c.21-.48.37-.87.49-1.16a3.2,3.2,0,0,1,.19-.39,1.43,1.43,0,0,1-.12.41l-.44,1.19L325,222c-.71,1.94-1.57,4.31-2.52,7s-2,5.82-2.89,9.26l-.12-.25,6.12,2.83.37.17-.33.24-5.6,3.94-.36-.08s.18-.13.16-.13,0,0,0,0a.24.24,0,0,0,.11.06l.08,0h0v0l0,.21v.45l0,.93c0,.63.06,1.26.1,1.89.06,1.28.11,2.57.17,3.88.12,2.61.25,5.29.37,8,.34,7.3.77,14.25,1.3,20.56s1.19,12,1.86,16.71,1.38,8.55,1.86,11.18q.39,1.94.6,3l.14.79C326.44,312.94,326.45,313,326.45,313Z" style="fill:#263238"></path><path d="M299.16,304c-.09,0-.13-.9-.62-2.25a9,9,0,0,0-8.5-6c-1.43,0-2.3.27-2.32.18a5,5,0,0,1,2.31-.54,8.71,8.71,0,0,1,8.86,6.21A4.93,4.93,0,0,1,299.16,304Z" style="fill:#263238"></path><path d="M291.67,299.06a10.73,10.73,0,0,1-.75,1.48,14,14,0,0,1-1,1.67c-.44.62-.89,1.37-1.51,2.1-.3.37-.62.76-.94,1.17s-.73.78-1.11,1.2a34.78,34.78,0,0,1-2.6,2.49,35.94,35.94,0,0,1-14.52,7.55,32,32,0,0,1-3.54.7c-.55.08-1.09.18-1.61.22l-1.5.1a22.65,22.65,0,0,1-2.59,0,13.31,13.31,0,0,1-1.94-.12,10.36,10.36,0,0,1-1.64-.24c0-.13,2.36.24,6.14,0l1.48-.13c.52-.05,1.05-.16,1.6-.24,1.1-.15,2.26-.46,3.47-.74a37.14,37.14,0,0,0,14.34-7.46,34.42,34.42,0,0,0,2.6-2.42c.38-.41.78-.77,1.11-1.17s.66-.77,1-1.13C290.51,301.13,291.56,299,291.67,299.06Z" style="fill:#263238"></path><path d="M268.3,277.33c.16,0,.09,2.05.78,4.44s1.81,4.11,1.67,4.2a10.75,10.75,0,0,1-2.45-8.64Z" style="fill:#ff9a6c"></path><path d="M269,266c.14.05-.06.9-.2,2s-.17,1.92-.32,1.93-.35-.88-.2-2S268.84,266,269,266Z" style="fill:#ff9a6c"></path><path d="M425,366.67l20.37-137.09-37.6-13.78s-8.81-8.1-13.5-12.3l-1.65,21.2S387.49,311.37,395.5,355s6.87,42.17,12.73,70.57c4.26,20.66,5,38.71,11.38,40.53s28.63-30.71,28.63-30.71Z" style="fill:#2883E7"></path><path d="M445.33,229.58s11.4,5.59,13.1,21.51c1.51,14,4,100,3.67,106.91s-6.29,26.53-17,27.21c-16.95,1.08-21.61-12-21.61-12L428,329.3Z" style="fill:#2883E7"></path><path d="M402.21,308.39l0-.26c0-.2.08-.44.14-.75.14-.69.33-1.65.57-2.86.45-2.5,1.14-6.11,1.78-10.6,1.34-9,2.48-21.47,3.14-35.3.16-3.26.31-6.45.45-9.53.07-1.54.14-3.06.21-4.54,0-.74.08-1.48.11-2.2,0-.36,0-.72.05-1.08v-.53a1.79,1.79,0,0,0,0-.24.38.38,0,0,0,0-.08l0,0,0,0a.18.18,0,0,0,.15.05c.06,0,.16-.07.14-.06h0l-.35.07-5.6-3.94-.32-.23.35-.16,6.13-2.82-.11.23a71,71,0,0,1-1.25-7.45c-.28-2.21-.56-4.11-.86-5.64s-.63-2.72-.87-3.51c-.12-.37-.22-.66-.29-.9a1.25,1.25,0,0,1-.09-.31,1.11,1.11,0,0,1,.14.29c.08.2.21.49.35.88a29.81,29.81,0,0,1,1,3.5c.33,1.54.64,3.44,1,5.64s.65,4.71,1.31,7.4l0,.16-.15.07-6.1,2.87,0-.39,5.62,3.92-.35.07,0-.07a.3.3,0,0,1,.19-.09.27.27,0,0,1,.19.06l.05.06a.25.25,0,0,1,0,.09,1,1,0,0,1,0,.18c0,.11,0,.2,0,.29v.55l0,1.09c0,.73-.08,1.46-.11,2.2-.07,1.49-.13,3-.2,4.54q-.21,4.63-.44,9.53a338.33,338.33,0,0,1-3.3,35.34c-.68,4.49-1.43,8.09-1.94,10.58-.29,1.2-.51,2.16-.67,2.85l-.18.73A.9.9,0,0,1,402.21,308.39Z" style="fill:#263238"></path><g style="opacity:0.30000000000000004"><path d="M346.92,379.05s-2.57,3.34,3.08,4.36,69.61-3.7,69.61-3.7l12.16,7.06-1.59-5.1L420,370.85Z"></path></g><path d="M423.79,272.66l-80.54,4.11a3.7,3.7,0,0,0-3.51,3.5l-5.35,95.53a3.71,3.71,0,0,0,3.9,3.91l78.14-4.09a3.7,3.7,0,0,0,3.5-3.4l7.74-95.56A3.71,3.71,0,0,0,423.79,272.66Z" style="fill:#263238"></path><path d="M440.69,251.72a7.29,7.29,0,0,1-.13.86c-.12.61-.28,1.42-.47,2.44l-1.77,9c-1.47,7.57-3.39,18-5.23,29.67s-3.24,22.18-4.17,29.83c-.46,3.8-.83,6.88-1.09,9.07-.13,1-.23,1.86-.3,2.47a5.92,5.92,0,0,1-.14.85,4.65,4.65,0,0,1,0-.86c.06-.62.12-1.44.21-2.48.19-2.15.5-5.25.92-9.09.84-7.67,2.19-18.24,4-29.88s3.83-22.1,5.39-29.65c.78-3.78,1.44-6.83,1.93-8.93.24-1,.42-1.82.56-2.42A5.48,5.48,0,0,1,440.69,251.72Z" style="fill:#263238"></path><path d="M425.43,335.22s4.64.27,8.74,7.13l7.85,5s6.87,10.79,0,20.87-15.16,1.51-15.16,1.51-8.3,4.11-10.61,3.4-18-9.17-20.34-11.11c-.68-.58-5.74-6.39-5.74-6.39s-7-1.5-7.82-3.11-.86-5.29,3.87-4.93c0,0-4.6-1.39-5.13-3.71s0-5.34,8.15-4.18,23.77,5.5,25.58,5.06a1.13,1.13,0,0,0-.18-2.05c-.58-.27-19-7.43-21.95-8.24-3.19-.87-3.65-8,2.95-6.3s28.1,6.87,28.1,6.87Z" style="fill:#ffbf9d"></path><path d="M413.3,362.53a27.27,27.27,0,0,1-3.41-1c-2.09-.69-5-1.61-8.2-2.55s-6.15-1.71-8.28-2.26a24.4,24.4,0,0,1-3.43-1,3.89,3.89,0,0,1,.95.11c.61.1,1.49.27,2.57.49,2.15.46,5.11,1.18,8.34,2.12s6.11,1.93,8.17,2.7c1,.39,1.86.71,2.43,1A3.59,3.59,0,0,1,413.3,362.53Z" style="fill:#ff9a6c"></path><path d="M415.94,354a6.33,6.33,0,0,1-1.2-.08c-.77-.09-1.89-.23-3.26-.44-2.74-.41-6.52-1.06-10.66-2s-7.85-1.83-10.52-2.59c-1.34-.37-2.41-.69-3.15-.93a6.51,6.51,0,0,1-1.14-.42,5.28,5.28,0,0,1,1.19.22l3.19.78c2.69.66,6.41,1.55,10.54,2.43s7.89,1.6,10.61,2.1l3.23.6A4.55,4.55,0,0,1,415.94,354Z" style="fill:#ff9a6c"></path><path d="M438.27,352.16a2.79,2.79,0,0,1,0,.85,13.76,13.76,0,0,1-.3,2.27,20.32,20.32,0,0,1-8.2,12.44,13.69,13.69,0,0,1-2,1.17c-.49.24-.77.36-.78.32s1-.63,2.54-1.79a22.47,22.47,0,0,0,5.05-5.43,22.76,22.76,0,0,0,3-6.79C438.09,353.35,438.17,352.15,438.27,352.16Z" style="fill:#ff9a6c"></path><path d="M440.87,370.85c-.08-.07,1-1.11,2.22-3.16a18.12,18.12,0,0,0,.55-17.72c-1.08-2.12-2.1-3.23-2-3.29a3.74,3.74,0,0,1,.73.75A15.63,15.63,0,0,1,444,349.8a17.53,17.53,0,0,1-.57,18.09,15.92,15.92,0,0,1-1.75,2.26A4,4,0,0,1,440.87,370.85Z" style="fill:#263238"></path><path d="M459,336.56c-.06.09-1.32-.88-3.59-2a26.78,26.78,0,0,0-4.13-1.58A29.35,29.35,0,0,0,446,332a29,29,0,0,0-5.41.15,25.8,25.8,0,0,0-4.31.95c-2.41.76-3.8,1.53-3.84,1.43a4.65,4.65,0,0,1,.94-.57,9.19,9.19,0,0,1,1.17-.57,16.36,16.36,0,0,1,1.61-.64,23.29,23.29,0,0,1,4.37-1.07,27.43,27.43,0,0,1,5.51-.2,27.92,27.92,0,0,1,5.42,1,24.12,24.12,0,0,1,4.16,1.71,17,17,0,0,1,1.49.87,9.88,9.88,0,0,1,1.08.74A4.44,4.44,0,0,1,459,336.56Z" style="fill:#263238"></path><g style="opacity:0.30000000000000004"><path d="M406.37,217.53s6.79,15.84,5.84,17.16-4.52,2.26-4.52,2.26,5.85,2.52,5.84,4.77c0,4.47-6.27,30.93-6.27,30.93l1.55-32.32-5.61-3.93,6.11-2.84Z"></path></g><path d="M423.46,276.06a3.88,3.88,0,0,1-.45.05l-1.33.1-5.11.34-18.78,1.14-27.87,1.62-16.45.94-4.32.24-2.18.13c-.36,0-.76,0-1.08.06a1.7,1.7,0,0,0-.86.39,1.72,1.72,0,0,0-.52.8,5.22,5.22,0,0,0-.12,1l-.15,2.23-.3,4.51c-1.67,24.19-3.18,46.08-4.27,62-.57,7.91-1,14.32-1.35,18.77-.17,2.2-.31,3.91-.4,5.1-.05.57-.09,1-.11,1.33s-.06.45-.06.45,0-.15,0-.45,0-.77.07-1.33c.07-1.2.17-2.91.29-5.11.28-4.46.69-10.87,1.19-18.78,1.06-15.88,2.51-37.78,4.12-62q.15-2.26.3-4.5l.15-2.23a5.63,5.63,0,0,1,.14-1.17,2.25,2.25,0,0,1,.68-1,2.29,2.29,0,0,1,1.13-.51c.41,0,.74,0,1.12-.07l2.18-.12,4.32-.24,16.46-.91,27.87-1.51,18.79-1,5.11-.24,1.33-.05Z" style="fill:#455a64"></path></g></svg>